<?xml version="1.0" encoding="UTF-8" standalone="no"?>
<!-- Created with Inkscape (http://www.inkscape.org/) -->

<svg
   xmlns:dc="http://purl.org/dc/elements/1.1/"
   xmlns:cc="http://creativecommons.org/ns#"
   xmlns:rdf="http://www.w3.org/1999/02/22-rdf-syntax-ns#"
   xmlns:svg="http://www.w3.org/2000/svg"
   xmlns="http://www.w3.org/2000/svg"
   xmlns:xlink="http://www.w3.org/1999/xlink"
   version="1.1"
   width="2104.7244"
   height="1488.189"
   id="svg2">
  <title
     id="title3763">vectorstash-grid</title>
  <defs
     id="defs4">
    <linearGradient
       id="linearGradient4630">
      <stop
         id="stop4632"
         style="stop-color:#ff5555;stop-opacity:1"
         offset="0" />
      <stop
         id="stop4634"
         style="stop-color:#770000;stop-opacity:1"
         offset="1" />
    </linearGradient>
    <linearGradient
       id="linearGradient4444">
      <stop
         id="stop4446"
         style="stop-color:#dc0909;stop-opacity:1"
         offset="0" />
      <stop
         id="stop4448"
         style="stop-color:#7c0000;stop-opacity:1"
         offset="1" />
    </linearGradient>
    <linearGradient
       id="linearGradient4432">
      <stop
         id="stop4434"
         style="stop-color:#000000;stop-opacity:1"
         offset="0" />
      <stop
         id="stop4436"
         style="stop-color:#e83030;stop-opacity:0"
         offset="1" />
    </linearGradient>
    <radialGradient
       cx="-1.0658141e-013"
       cy="-6.117773e-011"
       r="99.268837"
       fx="-1.0658141e-013"
       fy="-6.117773e-011"
       id="radialGradient4442"
       xlink:href="#linearGradient4432"
       gradientUnits="userSpaceOnUse" />
  </defs>
  <metadata
     id="metadata7">
    <rdf:RDF>
      <cc:Work
         rdf:about="">
        <dc:format>image/svg+xml</dc:format>
        <dc:type
           rdf:resource="http://purl.org/dc/dcmitype/StillImage" />
        <dc:title>vectorstash-grid</dc:title>
        <dc:subject>
          <rdf:Bag>
            <rdf:li>free vector art graphics svg download</rdf:li>
          </rdf:Bag>
        </dc:subject>
        <dc:publisher>
          <cc:Agent>
            <dc:title>vector</dc:title>
          </cc:Agent>
        </dc:publisher>
      </cc:Work>
    </rdf:RDF>
  </metadata>
  <g
     transform="translate(0,435.82681)"
     id="layer1" />
  <g
     transform="translate(0,435.82681)"
     id="g3962" />
  <path
     d="M 0,0 0,1488.189 M 50,0 50,1488.189 M 100,0 100,1488.189 M 150,0 150,1488.189 M 200,0 200,1488.189 M 250,0 250,1488.189 M 300,0 300,1488.189 M 350,0 350,1488.189 M 400,0 400,1488.189 M 450,0 450,1488.189 M 500,0 500,1488.189 M 550,0 550,1488.189 M 600,0 600,1488.189 M 650,0 650,1488.189 M 700,0 700,1488.189 M 750,0 750,1488.189 M 800,0 800,1488.189 M 850,0 850,1488.189 M 900,0 900,1488.189 M 950,0 950,1488.189 M 1000,0 l 0,1488.189 M 1050,0 l 0,1488.189 M 1100,0 l 0,1488.189 M 1150,0 l 0,1488.189 M 1200,0 l 0,1488.189 M 1250,0 l 0,1488.189 M 1300,0 l 0,1488.189 M 1350,0 l 0,1488.189 M 1400,0 l 0,1488.189 M 1450,0 l 0,1488.189 M 1500,0 l 0,1488.189 M 1550,0 l 0,1488.189 M 1600,0 l 0,1488.189 M 1650,0 l 0,1488.189 M 1700,0 l 0,1488.189 M 1750,0 l 0,1488.189 M 1800,0 l 0,1488.189 M 1850,0 l 0,1488.189 M 1900,0 l 0,1488.189 M 1950,0 l 0,1488.189 M 2000,0 l 0,1488.189 M 2050,0 l 0,1488.189 M 2100,0 l 0,1488.189 M 0,0 2104.7244,0 M 0,50 2104.7244,50 M 0,100 2104.7244,100 M 0,150 2104.7244,150 M 0,200 2104.7244,200 M 0,250 2104.7244,250 M 0,300 2104.7244,300 M 0,350 2104.7244,350 M 0,400 2104.7244,400 M 0,450 2104.7244,450 M 0,500 2104.7244,500 M 0,550 2104.7244,550 M 0,600 2104.7244,600 M 0,650 2104.7244,650 M 0,700 2104.7244,700 M 0,750 2104.7244,750 M 0,800 2104.7244,800 M 0,850 2104.7244,850 M 0,900 2104.7244,900 M 0,950 2104.7244,950 M 0,1000 l 2104.7244,0 M 0,1050 l 2104.7244,0 M 0,1100 l 2104.7244,0 M 0,1150 l 2104.7244,0 M 0,1200 l 2104.7244,0 M 0,1250 l 2104.7244,0 M 0,1300 l 2104.7244,0 M 0,1350 l 2104.7244,0 M 0,1400 l 2104.7244,0 M 0,1450 l 2104.7244,0"
     id="path5273"
     style="fill:none;stroke:#000000;stroke-width:1pt;stroke-linecap:butt;stroke-linejoin:miter;stroke-opacity:1" />
</svg>
